<svg width="1440" height="860" viewBox="0 0 1440 860" fill="none" xmlns="http://www.w3.org/2000/svg">
  <rect width="1440" height="860" rx="24" fill="#0D1726"/>
  <rect x="24" y="24" width="1392" height="64" rx="14" fill="#13243A" stroke="#29445F"/>
  <circle cx="57" cy="56" r="14" fill="#FF8A5B"/>
  <path d="M52 56H62M57 51V61" stroke="#0D1726" stroke-width="2" stroke-linecap="round"/>
  <rect x="104" y="38" width="220" height="36" rx="8" fill="#183656"/>
  <text x="126" y="62" fill="#E5F2FF" font-family="Arial, sans-serif" font-size="18" font-weight="700">mindcraft-agent</text>
  <rect x="336" y="38" width="168" height="36" rx="8" fill="#122A42"/>
  <text x="358" y="62" fill="#AFC7E0" font-family="Arial, sans-serif" font-size="16">Claude Code</text>
  <rect x="516" y="38" width="150" height="36" rx="8" fill="#122A42"/>
  <text x="538" y="62" fill="#AFC7E0" font-family="Arial, sans-serif" font-size="16">Codex</text>
  <rect x="24" y="104" width="76" height="732" rx="14" fill="#13243A" stroke="#29445F"/>
  <rect x="39" y="132" width="46" height="46" rx="12" fill="#1B5A8E"/>
  <path d="M52 155L61 146L70 155L61 164L52 155Z" stroke="#DFF3FF" stroke-width="2"/>
  <rect x="39" y="196" width="46" height="46" rx="12" fill="#1B3048"/>
  <path d="M53 208H71V230H53V208Z" stroke="#B9D0E6" stroke-width="2"/>
  <rect x="39" y="260" width="46" height="46" rx="12" fill="#1B3048"/>
  <path d="M53 272H71V294H53V272Z" stroke="#B9D0E6" stroke-width="2"/>
  <rect x="116" y="104" width="286" height="732" rx="14" fill="#101F32" stroke="#29445F"/>
  <text x="142" y="144" fill="#E5F2FF" font-family="Arial, sans-serif" font-size="19" font-weight="700">Sessions</text>
  <rect x="140" y="166" width="238" height="42" rx="9" fill="#183656"/>
  <text x="158" y="193" fill="#E5F2FF" font-family="Arial, sans-serif" font-size="15">+ New session</text>
  <rect x="140" y="222" width="238" height="38" rx="9" fill="#132B45"/>
  <text x="158" y="247" fill="#83B7DD" font-family="Arial, sans-serif" font-size="14">Search project history</text>
  <text x="142" y="300" fill="#7899B7" font-family="Arial, sans-serif" font-size="13">TODAY</text>
  <rect x="140" y="315" width="238" height="72" rx="10" fill="#1A456A"/>
  <text x="160" y="344" fill="#E5F2FF" font-family="Arial, sans-serif" font-size="16" font-weight="700">Improve session flow</text>
  <text x="160" y="369" fill="#9BBAD5" font-family="Arial, sans-serif" font-size="13">Claude Code · active</text>
  <rect x="140" y="398" width="238" height="72" rx="10" fill="#142B44"/>
  <text x="160" y="427" fill="#D6E6F5" font-family="Arial, sans-serif" font-size="16">Review file changes</text>
  <text x="160" y="452" fill="#7899B7" font-family="Arial, sans-serif" font-size="13">Codex · completed</text>
  <rect x="420" y="104" width="996" height="732" rx="14" fill="#101F32" stroke="#29445F"/>
  <text x="452" y="144" fill="#E5F2FF" font-family="Arial, sans-serif" font-size="19" font-weight="700">Project workspace</text>
  <text x="452" y="172" fill="#7899B7" font-family="Arial, sans-serif" font-size="14">/workspace/sample-project</text>
  <rect x="452" y="198" width="932" height="198" rx="12" fill="#132B45" stroke="#234869"/>
  <rect x="474" y="220" width="106" height="28" rx="14" fill="#245F51"/>
  <text x="493" y="240" fill="#C5F5DF" font-family="Arial, sans-serif" font-size="13">Claude Code</text>
  <text x="474" y="282" fill="#F1F7FC" font-family="Arial, sans-serif" font-size="20" font-weight="700">Let us trace the session lifecycle first.</text>
  <text x="474" y="317" fill="#AFC7E0" font-family="Arial, sans-serif" font-size="16">I will map stream, abort, done, metrics, and history boundaries,</text>
  <text x="474" y="344" fill="#AFC7E0" font-family="Arial, sans-serif" font-size="16">then add a focused contract test before changing runtime behavior.</text>
  <rect x="452" y="416" width="932" height="160" rx="12" fill="#0C1929" stroke="#29445F"/>
  <rect x="474" y="438" width="76" height="28" rx="14" fill="#3B4C7C"/>
  <text x="495" y="458" fill="#DCE7FF" font-family="Arial, sans-serif" font-size="13">Codex</text>
  <text x="474" y="500" fill="#75D7B1" font-family="Consolas, monospace" font-size="15">git diff -- packages/agent/electron/sessionRegistry.js</text>
  <text x="474" y="532" fill="#C9D9E8" font-family="Consolas, monospace" font-size="14">+ keep provider identity separate from UI chatKey</text>
  <text x="474" y="556" fill="#C9D9E8" font-family="Consolas, monospace" font-size="14">+ refresh cached tab summary after the done boundary</text>
  <rect x="452" y="596" width="932" height="142" rx="12" fill="#132B45" stroke="#234869"/>
  <text x="474" y="628" fill="#AFC7E0" font-family="Arial, sans-serif" font-size="14">Message · Shift+Enter for newline</text>
  <rect x="474" y="646" width="820" height="66" rx="10" fill="#0C1929" stroke="#376990"/>
  <text x="496" y="686" fill="#779BB9" font-family="Arial, sans-serif" font-size="16">Ask Claude Code or Codex about this project...</text>
  <rect x="1310" y="646" width="52" height="66" rx="10" fill="#FF8758"/>
  <path d="M1327 678L1347 662L1340 696L1334 683L1327 678Z" fill="#FFF7F2"/>
  <text x="474" y="790" fill="#7899B7" font-family="Arial, sans-serif" font-size="14">Unified session state · file changes · Markdown documents · token metrics</text>
</svg>
